<svg xmlns="http://www.w3.org/2000/svg" version="1.1" xmlns:xlink="http://www.w3.org/1999/xlink" width="1000" height="1000"><g clip-path="url(#SvgjsClipPath1050)"><rect width="1000" height="1000" fill="#ffffff"></rect><g transform="matrix(0.9765625,0,0,0.9765625,0,0)"><svg xmlns="http://www.w3.org/2000/svg" version="1.1" xmlns:xlink="http://www.w3.org/1999/xlink" width="1024" height="1024"><svg xmlns="http://www.w3.org/2000/svg" viewBox="0 0 1024 1024">
	<path d="M683.66 594.65c-4.484 11.54-7.016 22.952-4.26 34.979.674 2.936 1.376 6.084 3.487 8.185 3.4 3.383 2.967 6.748 1.77 10.889-2.85 9.86-5.207 19.863-7.69 29.524-2.817.772-4.518-.597-6.268-1.357-23.398-10.156-48.138-15.217-73.092-19.573-27.63-4.824-55.54-6.584-83.486-6.652-22.94-.055-45.883 1.28-68.709 4.29-23.303 3.073-46.332 7.256-68.824 14.16-7.645 2.347-15.185 5.016-22.458 8.336-3.522 1.607-4.902.91-5.805-2.96-2.266-9.714-5.028-19.312-7.52-28.974-.4-1.55-1.143-3.199.154-4.766 8.142-9.839 7.75-21.264 5.606-32.765-1.82-9.762-5.663-18.79-12.16-26.5-2.835-3.364-6.094-6.32-10.335-7.597-3.068-.925-4.044-2.854-4.736-5.66-4.779-19.379-9.792-38.7-14.475-58.103-1.041-4.314-2.619-6.834-7.433-7.766-10.45-2.023-17.164-9.83-17.753-19.492-.66-10.85 4.528-19.438 13.918-23.038 9.398-3.603 19.928-.667 26.064 7.265 6.061 7.837 6.48 18.83.243 26.95-2.818 3.669-1.89 5.487 1.043 8.074 31.11 27.436 62.144 54.957 93.206 82.445.855.757 1.608 1.726 3.608 1.806 2.934-5.14 6.17-10.5 9.111-16.017a23344.343 23344.343 0 0040.04-75.487c2.6-4.92 2.31-5.385-2.968-6.664-4.04-.98-8.082-1.945-12.11-2.968-.423-.108-.757-.563-1.334-1.014 2.162-5.402 6.806-9.343 8.856-14.703-1.808-2.211-5.018-1.405-6.865-4.11 3.048-5.51 8.386-9.509 11.925-15.07-2.333-3.106-6.554-2.389-9.556-5.128 2.306-5.2 7.402-8.6 10.166-13.698-2.487-3.04-6.787-2.91-9.274-5.604-.059-.4-.268-.857-.13-1.022 4.214-5.02 4.31-10.762 4.287-17.081-.041-12.023 4.93-22.868 9.798-33.407 2.859-.194 3.588 1.801 4.728 3.076 17.322 19.372 34.946 38.49 51.687 58.352 5.331 6.326 11.208 9.085 18.751 8.734 5.788-.269 8.37 1.916 10.405 7.294 3.865 10.21 8.767 20.029 13.241 30.008.468 1.043 1.263 2 .721 3.568-2.122 1.311-4.8 1.463-7.32 2.134-4.85 1.291-5.4 2.48-3 7.016 13.865 26.201 27.744 52.396 41.72 78.537 2.41 4.506 4.296 9.364 7.705 13.245 4.377-1.82 95.38-82.014 100.325-88.439-3.855-5.05-7.145-10.507-7.03-17.427.199-11.892 8.58-20.966 20.782-22.114 11.387-1.072 21.827 7.02 23.708 18.376 1.858 11.214-5.18 22.928-16.21 25.29-5.45 1.168-7.604 3.613-8.824 8.76-4.33 18.279-9.179 36.433-13.657 54.676-1.075 4.382-2.538 7.41-7.348 9.407-8.456 3.508-12.767 11.323-16.426 19.78m-150.965-5.266c.16-5.163-.053-10.292-1.049-15.384-1.713-8.761-4.22-17.183-10.785-23.68-5.507-5.45-9.265-5.514-15.218-.544-3.253 2.716-5.423 6.23-7.257 10.021-5.734 11.858-6.02 24.521-4.763 37.14.96 9.636 3.858 18.957 10.64 26.417 6.534 7.187 11.466 7.077 17.657-.497 7.71-9.43 10.285-20.654 10.775-33.473z"></path>
	<path d="M604.041 750.29c-23.658 3.569-46.999 5.412-70.495 6.233-23.192.81-46.335.384-69.393-1.453-31.187-2.485-62.348-5.806-91.951-17.053-6.232-2.368-12.288-5.187-17.172-9.974-8.982-8.803-8.675-21.196.965-29.344 8.737-7.385 19.35-11.014 30.114-14.053 23.13-6.528 46.784-9.97 70.706-12.11 21.924-1.961 43.855-3.328 65.847-2.69 39.82 1.156 79.466 4.06 118.056 14.926 9.774 2.753 19.458 6.003 27.577 12.517 12.366 9.923 12.089 24.236-.816 33.563-8.925 6.45-19.328 9.614-29.8 12.459-10.926 2.968-22.065 4.965-33.638 6.979m-74.758-55.922c-28.837-.515-57.61.632-86.246 4.07-19.343 2.323-38.515 5.732-57.029 12.075-2.106.722-4.432 1.273-5.946 3.286 34.753 24.064 234.407 23.774 266.797-.396-5.12-3.167-10.832-4.47-16.385-6.012-32.785-9.103-66.484-11.307-101.191-13.023zM493.314 383.66c-3.664-4.12-7.124-7.947-10.527-11.825-3.349-3.815-6.557-7.426-8.786-12.383-4.473-9.946-3.153-18.477 1.478-27.886 9.183-18.654 17.518-37.726 26.129-56.66 1.05-2.311 2.32-3.853 5.037-4.133 5.027-.52 5.842.257 4.951 5.37-3.309 18.978-6.563 37.967-10.006 56.922-.67 3.687.025 5.133 4.06 5.983 21.87 4.609 42.706 12.644 63.777 19.884.424.146.742.6 1.149.942-5.113 14.622-10.204 29.185-15.297 43.746-.275.786-.714 1.542-.836 2.348-1.597 10.557-7.49 17.04-17.75 20.284-3.704 1.171-5.625.735-8.031-2.064-11.605-13.506-23.395-26.853-35.348-40.527m43.716-20.063c-7.266-11.13-16.92-10.927-23.672.457-1.812 3.055-2.94 6.297-3.46 9.802-1.073 7.241 3.01 14.24 9.792 16.64 6.658 2.357 13.806-.302 17.543-6.65 3.81-6.471 3.12-13.038-.203-20.25zM629.047 531.21c1.577 7.058 2.993 13.725 4.51 20.368.417 1.827 1.033 3.575-.68 5.064-7.124 6.194-14.25 12.385-20.939 18.196-2.249-.305-2.715-1.446-3.255-2.447-6.797-12.592-13.508-25.232-20.41-37.767-1.537-2.792-.839-4.421 1.348-6.385 7.057-6.337 13.89-12.924 20.927-19.283 2.28-2.06 2.834-3.792 1.503-6.865-2.94-6.789.11-14.216 6.315-16.784 6.723-2.784 13.95.073 16.642 6.576 2.767 6.685-.098 14.296-6.978 16.93-3.16 1.21-3.612 2.537-2.839 5.487 1.43 5.455 2.508 11.001 3.856 16.91zM407.715 569.307c-4.376-3.878-8.381-7.647-12.614-11.14-2.61-2.156-3.354-4.29-2.509-7.738 2.85-11.613 5.26-23.333 7.879-35.002.74-3.301.851-5.613-3.31-7.262-6.56-2.6-9.043-9.92-6.453-16.26 2.484-6.085 9.326-9.15 15.704-7.037 6.326 2.097 10.243 8.996 7.846 15.627-1.684 4.658-.376 7.195 3.022 10.102 6.57 5.622 12.732 11.72 19.203 17.462 2.24 1.988 2.705 3.663 1.17 6.41-6.574 11.762-12.92 23.65-19.383 35.476-3.139 5.742-3.17 5.723-7.994 1.523-.753-.656-1.524-1.292-2.561-2.161zM570.15 389.21c2.47-7.132 4.806-13.897 7.103-20.676 1.041-3.071 2.627-3.778 6.045-2.927 7.728 1.924 12.896 5.805 15.358 13.762 1.756 5.674 4.815 10.964 7.484 16.33 1.497 3.01.747 4.647-2.397 5.51-8.968 2.463-17.925 4.97-26.935 8.145 5.911.428 11.816 1.042 17.735 1.234 7.157.232 14.326.187 21.488.105 3.862-.045 4.84 1.7 3.379 4.969-1.765 3.946-3.74 7.799-5.666 11.67-.54 1.086-1.418 1.86-2.697 1.99-16.138 1.64-32.163 2.056-47.795-3.533-4.044-1.446-4.905-3.457-3.38-7.49 3.592-9.494 6.778-19.141 10.277-29.089m16.74-5.511l-1.878-3.983c1.208 3.907.327 8.593 4.253 12.931.357-4.132-1.208-6.116-2.376-8.948z"></path>
	<path d="M542.484 300.798c.885 1.67.17 2.88-.332 4.086-4.534 10.888-9.168 21.737-13.586 32.672-.964 2.389-2.27 2.951-4.571 2.44-5.34-1.185-10.671-2.446-16.06-3.36-4.265-.723-4.393-2.758-2.365-5.799 6.453-9.678 12.932-19.338 19.405-29.002 2.59-3.867 5.15-7.752 7.8-11.577 1.06-1.529 1.854-4.27 4.358-2.894 2.235 1.229.437 3.302-.182 4.847-3.875 9.66-7.92 19.254-10.69 29.365 3.994-6.092 7.936-12.22 12.023-18.25.904-1.334 1.353-3.716 4.2-2.528zM698.757 621.61c-2.318 3.16-3.83 6.634-7.634 7.838-5.96-10.989 2.176-39.063 13.27-44.504 3.613 13.101.286 24.889-5.636 36.666zM325.729 587.333c9.522 12.727 12.921 26.527 10.486 41.837-3.72.435-4.887-1.949-6.185-3.667-8.168-10.816-10.334-23.23-9.096-36.396.245-2.606 1.188-5.52 4.795-1.774zM536.497 435.375c4.901-4.267 10.849-6.18 16.115-9.313 1.427-.85 2.839-.351 4.252.377 3.347 1.725 6.752 3.338 10.2 5.028-6.436 8.576-20.36 10.364-30.567 3.908zM514.27 558.94c7.262 10.121 8.354 21.431 7.627 33.002-.394 6.275-1.663 12.507-4.47 18.262-1.005 2.062-1.915 4.26-4.14 5.438-2.27-.11-3.101-1.936-3.81-3.51-7.583-16.812-7.742-33.66.11-50.439.806-1.72 1.683-3.841 4.683-2.754zM521.472 375.52c-.715-2.953.061-4.974 2.482-6.156 1.348-.657 2.619-.102 3.7.753 1.623 1.283 1.977 3.05 1.463 4.94-.998 3.67-4.12 3.995-7.645.462z"></path>
</svg></svg></g></g><defs><clipPath id="SvgjsClipPath1050"><rect width="1000" height="1000" x="0" y="0" rx="500" ry="500"></rect></clipPath></defs></svg>